<svg width="60" height="60" viewBox="0 0 60 60" fill="none" xmlns="http://www.w3.org/2000/svg">
<g clip-path="url(#clip0_4126_1449)">
<rect width="60" height="60" rx="8" fill="white"/>
<path d="M52.5 0H7.5C3.375 0 0 3.375 0 7.5V17.145C0 17.145 9.635 22.745 10.245 23.095C11.02 23.545 11.98 23.5375 12.755 23.095C13.405 22.7275 32.805 11.575 33.095 11.4075C33.7925 11.005 34.545 11.14 34.965 11.3825C35.375 11.625 36.48 12.2525 37.065 12.5825C37.645 12.9175 37.6175 13.8375 37.0975 14.1375L12.8175 28.1125C11.9525 28.6125 11.0925 28.6225 10.1975 28.1175C8.695 27.2675 2.495 23.6575 0 22.205V27.255L10.245 33.205C11.02 33.655 11.98 33.6475 12.755 33.205C13.405 32.8375 32.805 21.6825 33.095 21.515C33.7925 21.115 34.545 21.25 34.965 21.495C35.375 21.735 36.48 22.3625 37.065 22.695C37.645 23.0275 37.6175 23.945 37.0975 24.245C36.5775 24.5475 13.8775 37.61 12.8175 38.22C11.9525 38.72 11.0925 38.7325 10.1975 38.225C8.695 37.3775 2.495 33.765 0 32.315V37.365L10.245 43.315C11.02 43.765 11.98 43.7575 12.755 43.315C13.405 42.9475 32.805 31.7925 33.095 31.625C33.7925 31.225 34.545 31.36 34.965 31.6025C35.375 31.845 36.48 32.4725 37.065 32.8025C37.645 33.135 37.6175 34.0575 37.0975 34.3575L12.8175 48.3325C11.9525 48.83 11.0925 48.8425 10.1975 48.335C8.695 47.485 2.495 43.875 0 42.425V52.5C0 56.625 3.375 60 7.5 60H52.5C56.625 60 60 56.625 60 52.5V7.5C60 3.375 56.625 0 52.5 0Z" fill="black"/>
</g>
<defs>
<clipPath id="clip0_4126_1449">
<rect width="60" height="60" fill="white"/>
</clipPath>
</defs>
</svg>
